# xmcd CD database file
#
# Track frame offsets:
#	150
#	12082
#	35774
#	58688
#	82622
#	113218
#	141690
#	172348
#	205387
#	217030
#	233743
#	251644
#	300106
#	307898
#
# Disc length: 4646 seconds
#
# Revision: 0
# Processed by: cddbd v1.5PL3 Copyright (c) Steve Scherf et al.
# Submitted via: CDex 1.51
#
DISCID=c012240e
DTITLE=Black Sabbath - The Road Of Tyr [CD1]
DYEAR=1990
DGENRE=Hard Rock
TTITLE0=Intro:Ave Satani〜The Gates Of Hell
TTITLE1=Neon Knights
TTITLE2=Iron Man
TTITLE3=Children Of The Grave
TTITLE4=Anno Mundi
TTITLE5=Headless Cross
TTITLE6=When Death Calls
TTITLE7=War Pigs
TTITLE8=Bass Solo
TTITLE9=Heart Like A Wheel〜Guitar Solo
TTITLE10=The Law Maker
TTITLE11=Drums Solo (incl. The Planets,Mars,The Bringer Of War)
TTITLE12=The Sign Of The Southern Cross
TTITLE13=Black Sabbath
EXTD=YEAR: 1990
EXTT0=
EXTT1=
EXTT2=
EXTT3=
EXTT4=
EXTT5=
EXTT6=
EXTT7=
EXTT8=
EXTT9=
EXTT10=
EXTT11=
EXTT12=
EXTT13=
PLAYORDER=
